Coordinates
version=1
nRows=24
nColumns=38
inDegrees=no

Units are S.I. units (second, meters, Newtons, ...)
If the header above contains a line with 'inDegrees', this indicates whether rotational values are in degrees (yes) or radians (no).

endheader
time	pelvis_tilt	pelvis_list	pelvis_rotation	pelvis_tx	pelvis_ty	pelvis_tz	hip_flexion_r	hip_adduction_r	hip_rotation_r	knee_angle_r	ankle_angle_r	subtalar_angle_r	mtp_angle_r	hip_flexion_l	hip_adduction_l	hip_rotation_l	knee_angle_l	ankle_angle_l	subtalar_angle_l	mtp_angle_l	lumbar_extension	lumbar_bending	lumbar_rotation	arm_flex_r	arm_add_r	arm_rot_r	elbow_flex_r	pro_sup_r	wrist_flex_r	wrist_dev_r	arm_flex_l	arm_add_l	arm_rot_l	elbow_flex_l	pro_sup_l	wrist_flex_l	wrist_dev_l
35	0.384256	1.47801	1.25418	0.681468	0.213895	1.05853	0.170759	-0.0299723	-0.0176114	0.25677	-0.270091	0	0	0.146238	-0.138377	-0.246484	0.386914	-0.263889	0	0	-0.231395	0.070399	-0.0797982	0.551598	-0.454706	1.52573	0.5894	0.647665	0	0	0.0116053	-0.286397	0.111829	0.590294	1.27248	0	0
35.01	0.151347	1.45465	1.48166	0.683747	0.214213	1.05227	0.244119	-0.0381288	0.0110948	0.278958	-0.290699	0	0	0.179313	-0.122267	-0.253291	0.399428	-0.255836	0	0	-0.188273	0.0456855	-0.0817853	0.539583	-0.446408	1.53687	0.584408	0.643837	0	0	-0.00615139	-0.297289	0.11858	0.597358	1.26912	0	0
35.02	0.388158	1.47639	1.25045	0.681433	0.21424	1.05851	0.171495	-0.0285888	-0.0196523	0.255443	-0.270905	0	0	0.148869	-0.139825	-0.248029	0.389774	-0.264215	0	0	-0.23176	0.0697523	-0.0776701	0.546908	-0.457299	1.52096	0.587397	0.654785	0	0	0.0111339	-0.286952	0.11639	0.589537	1.27838	0	0
35.03	0.390474	1.47557	1.24803	0.681464	0.214289	1.05849	0.172616	-0.0280683	-0.0193753	0.255954	-0.271605	0	0	0.150199	-0.14038	-0.247922	0.390965	-0.264096	0	0	-0.232857	0.0695215	-0.0775387	0.546114	-0.45783	1.52023	0.586232	0.656595	0	0	0.00994	-0.286889	0.115134	0.590252	1.28139	0	0
35.04	0.390702	1.47425	1.24773	0.68149	0.214268	1.05839	0.174166	-0.0275569	-0.0191964	0.256132	-0.271602	0	0	0.152213	-0.141113	-0.248556	0.392298	-0.264163	0	0	-0.233264	0.0693449	-0.0772479	0.545984	-0.45854	1.52266	0.585344	0.653848	0	0	0.00921916	-0.28709	0.115836	0.59015	1.28357	0	0
35.05	0.388913	1.47248	1.24956	0.681503	0.214181	1.05822	0.176267	-0.0270876	-0.0190667	0.256331	-0.271768	0	0	0.154941	-0.142014	-0.249749	0.3939	-0.264197	0	0	-0.233236	0.0691288	-0.0768894	0.545663	-0.4593	1.52505	0.584575	0.65033	0	0	0.0087612	-0.287198	0.116584	0.589572	1.28553	0	0
35.06	0.385419	1.47072	1.25294	0.681509	0.214068	1.05803	0.178596	-0.0268316	-0.0191033	0.256882	-0.271945	0	0	0.157516	-0.142541	-0.249995	0.395045	-0.264172	0	0	-0.233269	0.0686794	-0.0763526	0.545407	-0.460138	1.52792	0.583878	0.646897	0	0	0.00853217	-0.287181	0.11712	0.588507	1.2871	0	0
35.07	0.372533	1.467	1.26569	0.681557	0.213971	1.05764	0.183729	-0.0268778	-0.0191964	0.258473	-0.27162	0	0	0.162649	-0.14275	-0.249944	0.396538	-0.264118	0	0	-0.2302	0.0667125	-0.0702424	0.532318	-0.463498	1.49885	0.582015	0.671993	0	0	0.0138935	-0.291101	0.140399	0.584029	1.26939	0	0
35.08	0.376243	1.46693	1.26189	0.6815	0.213623	1.05751	0.184751	-0.0266219	-0.0201061	0.259958	-0.270907	0	0	0.163727	-0.143608	-0.250861	0.398362	-0.263172	0	0	-0.231774	0.0689393	-0.0780934	0.554852	-0.461099	1.56403	0.584567	0.603068	0	0	0.00719526	-0.286111	0.115653	0.583143	1.2899	0	0
35.09	0.365341	1.46352	1.27296	0.681531	0.213445	1.05721	0.189294	-0.0267032	-0.0202833	0.260673	-0.271699	0	0	0.168408	-0.14358	-0.2499	0.399092	-0.263847	0	0	-0.23144	0.0662255	-0.0721191	0.536694	-0.46432	1.51314	0.581722	0.653227	0	0	0.0114951	-0.289173	0.130265	0.582258	1.27983	0	0
35.1	0.36309	1.46178	1.27553	0.681534	0.213085	1.05701	0.192212	-0.0264984	-0.0207851	0.261867	-0.27171	0	0	0.171421	-0.144141	-0.249509	0.400433	-0.26371	0	0	-0.232455	0.0660532	-0.0724984	0.537878	-0.464874	1.51747	0.581617	0.648292	0	0	0.0114609	-0.288835	0.128278	0.580911	1.28217	0	0
35.11	0.358984	1.45964	1.27995	0.681545	0.212611	1.05674	0.196194	-0.0264379	-0.0213289	0.263874	-0.271683	0	0	0.175202	-0.14462	-0.249102	0.402035	-0.263579	0	0	-0.23337	0.0658038	-0.0727855	0.539355	-0.465417	1.52244	0.581722	0.644589	0	0	0.0118552	-0.28861	0.126813	0.57933	1.28416	0	0
35.12	0.351469	1.45673	1.28744	0.681612	0.211997	1.05635	0.202726	-0.0268591	-0.0185945	0.268862	-0.271103	0	0	0.180213	-0.144853	-0.24841	0.40411	-0.263275	0	0	-0.233652	0.0653928	-0.0730798	0.541314	-0.465873	1.52782	0.58196	0.639398	0	0	0.0122709	-0.288343	0.125012	0.577581	1.28616	0	0
35.13	0.346509	1.45446	1.29271	0.68165	0.211466	1.05603	0.206	-0.026474	-0.0213162	0.268861	-0.270944	0	0	0.1843	-0.145099	-0.247743	0.405918	-0.262969	0	0	-0.234571	0.0650445	-0.0735878	0.542702	-0.466282	1.53179	0.582261	0.635062	0	0	0.0127358	-0.288219	0.123699	0.575904	1.28739	0	0
35.14	0.343018	1.45231	1.29622	0.681743	0.210833	1.05573	0.210542	-0.026251	-0.0211684	0.271538	-0.270817	0	0	0.188273	-0.145492	-0.246933	0.407814	-0.262505	0	0	-0.235988	0.0648868	-0.0738227	0.544842	-0.466703	1.53734	0.582911	0.630137	0	0	0.0135094	-0.288088	0.122595	0.574218	1.28871	0	0
35.15	0.337069	1.44921	1.30205	0.681844	0.210006	1.05531	0.218275	-0.026508	-0.0179948	0.278399	-0.269754	0	0	0.193787	-0.146014	-0.246759	0.410301	-0.262025	0	0	-0.236825	0.0647453	-0.0740881	0.547524	-0.467096	1.54308	0.583588	0.62349	0	0	0.0145147	-0.287907	0.121477	0.57259	1.28974	0	0
35.16	0.333833	1.44653	1.30547	0.681919	0.209255	1.05495	0.223493	-0.0259486	-0.0207162	0.281348	-0.268932	0	0	0.198435	-0.146531	-0.245854	0.412052	-0.26162	0	0	-0.238224	0.0648074	-0.074509	0.549869	-0.467543	1.5474	0.584188	0.615931	0	0	0.0156007	-0.28777	0.12057	0.571026	1.29013	0	0
35.17	0.328545	1.44319	1.31046	0.682043	0.208393	1.05452	0.230349	-0.0256083	-0.0195809	0.285428	-0.268251	0	0	0.203964	-0.147026	-0.245216	0.413959	-0.261263	0	0	-0.239269	0.0647339	-0.0745554	0.552367	-0.468048	1.5513	0.584976	0.606125	0	0	0.0168666	-0.287696	0.119996	0.569598	1.29021	0	0
35.18	0.322974	1.43968	1.31562	0.682164	0.207476	1.05406	0.236838	-0.0251551	-0.017558	0.287892	-0.267971	0	0	0.209948	-0.147806	-0.245889	0.416417	-0.261001	0	0	-0.240148	0.0646264	-0.074392	0.554729	-0.468602	1.55486	0.585728	0.596457	0	0	0.0182978	-0.287714	0.120291	0.568192	1.29034	0	0
35.19	0.31744	1.43609	1.32102	0.682291	0.206477	1.05356	0.244244	-0.0247622	-0.0159112	0.292293	-0.267408	0	0	0.216481	-0.148814	-0.247296	0.419575	-0.260736	0	0	-0.241009	0.0645979	-0.0743426	0.557445	-0.469001	1.55994	0.586455	0.588552	0	0	0.0199712	-0.287869	0.121133	0.566849	1.29001	0	0
35.2	0.309398	1.43066	1.32868	0.682463	0.205262	1.05285	0.254675	-0.0244222	-0.00997027	0.298199	-0.266248	0	0	0.225683	-0.150025	-0.248741	0.423659	-0.260329	0	0	-0.240293	0.064657	-0.0742699	0.560475	-0.469167	1.56492	0.586755	0.579074	0	0	0.0216031	-0.288107	0.12221	0.565776	1.28913	0	0
35.21	0.306946	1.42655	1.33132	0.682568	0.204152	1.05229	0.261835	-0.0234943	-0.0112627	0.300286	-0.266105	0	0	0.233057	-0.151449	-0.249326	0.427198	-0.259815	0	0	-0.24107	0.0652422	-0.0746246	0.563384	-0.469175	1.56909	0.586775	0.569849	0	0	0.0232943	-0.288448	0.123653	0.565016	1.28805	0	0
35.22	0.305712	1.42358	1.3325	0.682705	0.202978	1.05185	0.269153	-0.0231583	-0.0097903	0.305068	-0.265993	0	0	0.238739	-0.152435	-0.248782	0.429614	-0.259501	0	0	-0.243382	0.0656789	-0.0747556	0.566224	-0.469157	1.5708	0.586818	0.564718	0	0	0.0253432	-0.288891	0.125168	0.564609	1.28729	0	0
35.23	0.300682	1.41865	1.33775	0.682845	0.201727	1.05112	0.280045	-0.0229931	-0.00906181	0.313287	-0.264887	0	0	0.247774	-0.153942	-0.250088	0.434373	-0.258943	0	0	-0.243894	0.0658923	-0.0749372	0.568293	-0.469545	1.5708	0.587528	0.557653	0	0	0.0271321	-0.289823	0.127727	0.565014	1.2857	0	0
